<svg width="28" height="28" viewBox="0 0 28 28" fill="none" xmlns="http://www.w3.org/2000/svg">
  <path d="M4 3.9668H8.0005V7.96613H4V3.9668ZM19.9997 3.9668H24.0013V7.96613H19.9997V3.9668Z" fill="#FFD700"/>
  <path d="M4 7.9668H11.9998V11.9673H4.00117L4 7.9668ZM16.0003 7.9668H24.0002V11.9673H16.0003V7.9668Z" fill="#FFAF00"/>
  <path d="M4 11.9668H24.0013V15.9661H4V11.9668Z" fill="#FF8205"/>
  <path d="M4 15.9668H8.0005V19.9661H4V15.9668ZM12.001 15.9668H16.0015V19.9661H12.001V15.9668ZM19.9997 15.9668H24.0013V19.9661H19.9997V15.9668Z" fill="#FA500F"/>
  <path d="M0 19.9668H12.0003V23.9673H0V19.9668ZM15.9997 19.9668H28V23.9673H15.9997V19.9668Z" fill="#E10500"/>
</svg>
