<svg width="16" height="16" viewBox="0 0 16 16" fill="none" xmlns="http://www.w3.org/2000/svg"><g clip-path="url(#clip0_7082_1709)"><path d="M14.8201 2.82401C14.4639 2.82401 14.1757 2.53531 14.1757 2.17964C14.1757 1.82347 14.4639 1.53528 14.8201 1.53528C15.1758 1.53528 15.4645 1.82347 15.4645 2.17964C15.4645 2.53531 15.1758 2.82401 14.8201 2.82401ZM8.42061 13.8335C8.06443 13.8335 7.77624 13.5448 7.77624 13.1891C7.77624 12.8329 8.06443 12.5448 8.42061 12.5448C8.77628 12.5448 9.06446 12.8329 9.06446 13.1891C9.06446 13.5448 8.77628 13.8335 8.42061 13.8335ZM14.8201 1C14.1686 1 13.6405 1.52817 13.6405 2.17964C13.6405 2.31866 13.6755 2.44804 13.7196 2.57184L8.18569 12.0567C7.65092 12.1688 7.24097 12.6209 7.24097 13.1891C7.24097 13.8406 7.76914 14.3688 8.42061 14.3688C9.07157 14.3688 9.59974 13.8406 9.59974 13.1891C9.59974 13.0582 9.56473 12.9385 9.52567 12.8208L15.0875 3.30499C15.606 3.18069 15.9997 2.73623 15.9997 2.17964C15.9997 1.52817 15.4716 1 14.8201 1Z" fill="#0C544C"/><path d="M9.99346 2.82401C9.63729 2.82401 9.3491 2.53531 9.3491 2.17964C9.3491 1.82347 9.63729 1.53528 9.99346 1.53528C10.3491 1.53528 10.6373 1.82347 10.6373 2.17964C10.6373 2.53531 10.3491 2.82401 9.99346 2.82401ZM3.59346 13.8335C3.23779 13.8335 2.9491 13.5448 2.9491 13.1891C2.9491 12.8329 3.23779 12.5448 3.59346 12.5448C3.94964 12.5448 4.23782 12.8329 4.23782 13.1891C4.23782 13.5448 3.94964 13.8335 3.59346 13.8335ZM9.99346 1C9.34149 1 8.81382 1.52817 8.81382 2.17964C8.81382 2.31866 8.84883 2.44804 8.89297 2.57184L3.35905 12.0567C2.82378 12.1688 2.41382 12.6209 2.41382 13.1891C2.41382 13.8406 2.94199 14.3688 3.59346 14.3688C4.24493 14.3688 4.7731 13.8406 4.7731 13.1891C4.7731 13.0582 4.73809 12.9385 4.69903 12.8208L10.2608 3.30499C10.7794 3.18069 11.1731 2.73623 11.1731 2.17964C11.1731 1.52817 10.6444 1 9.99346 1Z" fill="#073551"/><path d="M1.1794 4.79602C1.53507 4.79602 1.82376 5.08472 1.82376 5.44038C1.82376 5.79605 1.53507 6.08475 1.1794 6.08475C0.823221 6.08475 0.535034 5.79605 0.535034 5.44038C0.535034 5.08472 0.823221 4.79602 1.1794 4.79602ZM1.1794 6.62003C1.83086 6.62003 2.35904 6.09185 2.35904 5.44038C2.35904 5.30999 2.32352 5.18974 2.28446 5.07203C2.12818 4.60373 1.69996 4.26074 1.1794 4.26074C1.09619 4.26074 1.02313 4.29169 0.944483 4.30843C0.409713 4.42006 -0.000244141 4.87213 -0.000244141 5.44038C-0.000244141 6.09185 0.52793 6.62003 1.1794 6.62003Z" fill="#073551"/><path d="M0.535034 9.56245C0.535034 9.20628 0.823729 8.91809 1.1794 8.91809C1.53507 8.91809 1.82376 9.20628 1.82376 9.56245C1.82376 9.91812 1.53507 10.2063 1.1794 10.2063C0.823729 10.2063 0.535034 9.91812 0.535034 9.56245ZM2.35904 9.56245C2.35904 9.43155 2.32352 9.31181 2.28446 9.1941C2.12818 8.7258 1.70047 8.38281 1.1794 8.38281C1.09619 8.38281 1.02313 8.41376 0.944483 8.43C0.409713 8.54213 -0.000244141 8.9942 -0.000244141 9.56245C-0.000244141 10.2134 0.52793 10.7421 1.1794 10.7421C1.83086 10.7421 2.35904 10.2134 2.35904 9.56245Z" fill="#073551"/></g><defs><clipPath id="clip0_7082_1709"><rect width="16" height="13.3688" fill="white" transform="translate(0 1)"/></clipPath></defs></svg>
